<svg xmlns="http://www.w3.org/2000/svg" xmlns:xlink="http://www.w3.org/1999/xlink" xmlns:s="https://github.com/nturley/netlistsvg" width="979" height="242">
  <style>svg {
    stroke: #000;
    fill: none;
  }
  text {
    fill: #000;
    stroke: none;
    font-size: 10px;
    font-weight: bold;
    font-family: "Courier New", monospace;
  }
  .nodelabel {
    text-anchor: middle;
  }
  .inputPortLabel {
    text-anchor: end;
  }
  .splitjoinBody {
    fill: #000;
  }
  .symbol {
    stroke-linejoin: round;
    stroke-linecap: round;
    stroke-width: 2;
  }
  .detail {
    stroke-linejoin: round;
    stroke-linecap: round;
    fill: #000;
  }</style>
  <g s:type="voltage_source" s:width="32" s:height="52" transform="translate(351,53)" id="cell_VCC">
    <s:alias val="v"/>
    <text x="35" y="20" s:attribute="ref" class="cell_VCC">VCC</text>
    <text x="35" y="35" s:attribute="value" class="cell_VCC">DC VCC</text>
    <circle cx="16" cy="26" r="16" class="symbol cell_VCC"/>
    <path d="M16,10 V42" class="detail cell_VCC"/>
    <path d="M16,0 V10 M16,42 V52" class="connect cell_VCC"/>
    <g s:x="16" s:y="0" s:pid="+" s:position="top"/>
    <g s:x="16" s:y="52" s:pid="-" s:position="bottom"/>
  </g>
  <g s:type="voltage_source" s:width="32" s:height="52" transform="translate(12,53)" id="cell_VEE">
    <s:alias val="v"/>
    <text x="35" y="20" s:attribute="ref" class="cell_VEE">VEE</text>
    <text x="35" y="35" s:attribute="value" class="cell_VEE">DC VEE</text>
    <circle cx="16" cy="26" r="16" class="symbol cell_VEE"/>
    <path d="M16,10 V42" class="detail cell_VEE"/>
    <path d="M16,0 V10 M16,42 V52" class="connect cell_VEE"/>
    <g s:x="16" s:y="0" s:pid="+" s:position="top"/>
    <g s:x="16" s:y="52" s:pid="-" s:position="bottom"/>
  </g>
  <g s:type="voltage_source" s:width="32" s:height="52" transform="translate(422,53)" id="cell_VBCOMP">
    <s:alias val="v"/>
    <text x="35" y="20" s:attribute="ref" class="cell_VBCOMP">VBCOMP</text>
    <text x="35" y="35" s:attribute="value" class="cell_VBCOMP">BCOMP: max(0.75*V(vee), min(0.75*V(vcc), A*(-V(tri)+BETA*V(s</text>
    <circle cx="16" cy="26" r="16" class="symbol cell_VBCOMP"/>
    <path d="M16,10 V42" class="detail cell_VBCOMP"/>
    <path d="M16,0 V10 M16,42 V52" class="connect cell_VBCOMP"/>
    <g s:x="16" s:y="0" s:pid="+" s:position="top"/>
    <g s:x="16" s:y="52" s:pid="-" s:position="bottom"/>
  </g>
  <g s:type="resistor_h" s:width="50" s:height="10" transform="translate(448,23)" id="cell_ROUT">
    <s:alias val="r_h"/>
    <text class="nodelabel cell_ROUT" x="25" y="-5" s:attribute="ref">ROUT</text>
    <text class="nodelabel cell_ROUT" x="25" y="20" s:attribute="value">100</text>
    <path d="M10,0 H40 V10 H10 Z" class="symbol cell_ROUT"/>
    <path d="M0,5 H10 M40,5 H50" class="connect cell_ROUT"/>
    <g s:x="0" s:y="5" s:pid="A" s:position="left"/>
    <g s:x="50" s:y="5" s:pid="B" s:position="right"/>
  </g>
  <g s:type="capacitor_v" s:width="30" s:height="50" transform="translate(817,55)" id="cell_COUT">
    <s:alias val="c_v"/>
    <text x="25" y="10" s:attribute="ref" class="cell_COUT">COUT</text>
    <text x="25" y="45" s:attribute="value" class="cell_COUT">1n</text>
    <path d="M0,20 H30 M0,30 H30" class="symbol cell_COUT"/>
    <path d="M15,0 V20 M15,30 V50" class="connect cell_COUT"/>
    <g s:x="15" s:y="0" s:pid="A" s:position="top"/>
    <g s:x="15" s:y="50" s:pid="B" s:position="bottom"/>
  </g>
  <g s:type="current_source" s:width="32" s:height="52" transform="translate(83,53)" id="cell_IBCUR">
    <s:alias val="i"/>
    <text x="35" y="20" s:attribute="ref" class="cell_IBCUR">IBCUR</text>
    <text x="35" y="35" s:attribute="value" class="cell_IBCUR">BCUR: -(V(sq)/(0.75*VCC))*I0</text>
    <circle cx="16" cy="26" r="16" class="symbol cell_IBCUR"/>
    <path d="M0,26 H32" class="detail cell_IBCUR"/>
    <path d="M16,0 V10 M16,42 V52" class="connect cell_IBCUR"/>
    <g s:x="16" s:y="0" s:pid="+" s:position="top"/>
    <g s:x="16" s:y="52" s:pid="-" s:position="bottom"/>
  </g>
  <g s:type="capacitor_v" s:width="30" s:height="50" transform="translate(286,55)" id="cell_CT">
    <s:alias val="c_v"/>
    <text x="25" y="10" s:attribute="ref" class="cell_CT">CT</text>
    <text x="25" y="45" s:attribute="value" class="cell_CT">100n</text>
    <path d="M0,20 H30 M0,30 H30" class="symbol cell_CT"/>
    <path d="M15,0 V20 M15,30 V50" class="connect cell_CT"/>
    <g s:x="15" s:y="0" s:pid="A" s:position="top"/>
    <g s:x="15" s:y="50" s:pid="B" s:position="bottom"/>
  </g>
  <g s:type="gnd" s:width="20" s:height="30" transform="translate(522,140)" id="cell_GND1">
    <s:alias val="gnd"/>
    <text x="30" y="20" class="nodelabel cell_GND1" s:attribute="name"></text>
    <path d="M0,0 H20 M3,5 H17 M7,10 H13 M10,0 V-15" class="cell_GND1"/>
    <g s:x="10" s:y="-15" s:pid="A" s:position="top"/>
  </g>
  <g s:type="gnd" s:width="20" s:height="30" transform="translate(357,140)" id="cell_GND2">
    <s:alias val="gnd"/>
    <text x="30" y="20" class="nodelabel cell_GND2" s:attribute="name"></text>
    <path d="M0,0 H20 M3,5 H17 M7,10 H13 M10,0 V-15" class="cell_GND2"/>
    <g s:x="10" s:y="-15" s:pid="A" s:position="top"/>
  </g>
  <g s:type="gnd" s:width="20" s:height="30" transform="translate(412,140)" id="cell_GND3">
    <s:alias val="gnd"/>
    <text x="30" y="20" class="nodelabel cell_GND3" s:attribute="name"></text>
    <path d="M0,0 H20 M3,5 H17 M7,10 H13 M10,0 V-15" class="cell_GND3"/>
    <g s:x="10" s:y="-15" s:pid="A" s:position="top"/>
  </g>
  <g s:type="gnd" s:width="20" s:height="30" transform="translate(291,140)" id="cell_GND4">
    <s:alias val="gnd"/>
    <text x="30" y="20" class="nodelabel cell_GND4" s:attribute="name"></text>
    <path d="M0,0 H20 M3,5 H17 M7,10 H13 M10,0 V-15" class="cell_GND4"/>
    <g s:x="10" s:y="-15" s:pid="A" s:position="top"/>
  </g>
  <g s:type="gnd" s:width="20" s:height="30" transform="translate(467,140)" id="cell_GND5">
    <s:alias val="gnd"/>
    <text x="30" y="20" class="nodelabel cell_GND5" s:attribute="name"></text>
    <path d="M0,0 H20 M3,5 H17 M7,10 H13 M10,0 V-15" class="cell_GND5"/>
    <g s:x="10" s:y="-15" s:pid="A" s:position="top"/>
  </g>
  <g s:type="gnd" s:width="20" s:height="30" transform="translate(577,140)" id="cell_GND6">
    <s:alias val="gnd"/>
    <text x="30" y="20" class="nodelabel cell_GND6" s:attribute="name"></text>
    <path d="M0,0 H20 M3,5 H17 M7,10 H13 M10,0 V-15" class="cell_GND6"/>
    <g s:x="10" s:y="-15" s:pid="A" s:position="top"/>
  </g>
  <line x1="448" x2="438" y1="28" y2="28" class="net_5"/>
  <line x1="438" x2="438" y1="28" y2="53" class="net_5"/>
  <line x1="498" x2="832" y1="28" y2="28" class="net_6"/>
  <line x1="832" x2="832" y1="28" y2="55" class="net_6"/>
  <line x1="99" x2="99" y1="43" y2="53" class="net_7"/>
  <line x1="99" x2="301" y1="43" y2="43" class="net_7"/>
  <line x1="301" x2="301" y1="43" y2="55" class="net_7"/>
  <line x1="367" x2="367" y1="105" y2="115" class="net_3"/>
  <line x1="367" x2="532" y1="115" y2="115" class="net_3"/>
  <line x1="532" x2="532" y1="115" y2="125" class="net_3"/>
  <line x1="367" x2="367" y1="105" y2="125" class="net_3"/>
  <line x1="367" x2="367" y1="105" y2="115" class="net_3"/>
  <line x1="367" x2="422" y1="115" y2="115" class="net_3"/>
  <line x1="422" x2="422" y1="115" y2="125" class="net_3"/>
  <line x1="367" x2="367" y1="105" y2="115" class="net_3"/>
  <line x1="367" x2="301" y1="115" y2="115" class="net_3"/>
  <line x1="301" x2="301" y1="115" y2="125" class="net_3"/>
  <line x1="367" x2="367" y1="105" y2="115" class="net_3"/>
  <line x1="367" x2="477" y1="115" y2="115" class="net_3"/>
  <line x1="477" x2="477" y1="115" y2="125" class="net_3"/>
  <line x1="367" x2="367" y1="105" y2="115" class="net_3"/>
  <line x1="367" x2="587" y1="115" y2="115" class="net_3"/>
  <line x1="587" x2="587" y1="115" y2="125" class="net_3"/>
  <line x1="28" x2="28" y1="105" y2="115" class="net_3"/>
  <line x1="28" x2="532" y1="115" y2="115" class="net_3"/>
  <circle cx="532" cy="115" r="2" style="fill:#000" class="net_3"/>
  <line x1="532" x2="532" y1="115" y2="125" class="net_3"/>
  <line x1="28" x2="28" y1="105" y2="115" class="net_3"/>
  <line x1="28" x2="367" y1="115" y2="115" class="net_3"/>
  <circle cx="367" cy="115" r="2" style="fill:#000" class="net_3"/>
  <line x1="367" x2="367" y1="115" y2="125" class="net_3"/>
  <line x1="28" x2="28" y1="105" y2="115" class="net_3"/>
  <line x1="28" x2="422" y1="115" y2="115" class="net_3"/>
  <circle cx="422" cy="115" r="2" style="fill:#000" class="net_3"/>
  <line x1="422" x2="422" y1="115" y2="125" class="net_3"/>
  <line x1="28" x2="28" y1="105" y2="115" class="net_3"/>
  <line x1="28" x2="301" y1="115" y2="115" class="net_3"/>
  <circle cx="301" cy="115" r="2" style="fill:#000" class="net_3"/>
  <line x1="301" x2="301" y1="115" y2="125" class="net_3"/>
  <line x1="28" x2="28" y1="105" y2="115" class="net_3"/>
  <line x1="28" x2="477" y1="115" y2="115" class="net_3"/>
  <circle cx="477" cy="115" r="2" style="fill:#000" class="net_3"/>
  <line x1="477" x2="477" y1="115" y2="125" class="net_3"/>
  <line x1="28" x2="28" y1="105" y2="115" class="net_3"/>
  <line x1="28" x2="587" y1="115" y2="115" class="net_3"/>
  <circle cx="587" cy="115" r="2" style="fill:#000" class="net_3"/>
  <line x1="587" x2="587" y1="115" y2="125" class="net_3"/>
  <line x1="438" x2="438" y1="105" y2="115" class="net_3"/>
  <line x1="438" x2="532" y1="115" y2="115" class="net_3"/>
  <circle cx="438" cy="115" r="2" style="fill:#000" class="net_3"/>
  <line x1="532" x2="532" y1="115" y2="125" class="net_3"/>
  <line x1="438" x2="438" y1="105" y2="115" class="net_3"/>
  <line x1="438" x2="367" y1="115" y2="115" class="net_3"/>
  <line x1="367" x2="367" y1="115" y2="125" class="net_3"/>
  <line x1="438" x2="438" y1="105" y2="115" class="net_3"/>
  <line x1="438" x2="422" y1="115" y2="115" class="net_3"/>
  <line x1="422" x2="422" y1="115" y2="125" class="net_3"/>
  <line x1="438" x2="438" y1="105" y2="115" class="net_3"/>
  <line x1="438" x2="301" y1="115" y2="115" class="net_3"/>
  <line x1="301" x2="301" y1="115" y2="125" class="net_3"/>
  <line x1="438" x2="438" y1="105" y2="115" class="net_3"/>
  <line x1="438" x2="477" y1="115" y2="115" class="net_3"/>
  <line x1="477" x2="477" y1="115" y2="125" class="net_3"/>
  <line x1="438" x2="438" y1="105" y2="115" class="net_3"/>
  <line x1="438" x2="587" y1="115" y2="115" class="net_3"/>
  <line x1="587" x2="587" y1="115" y2="125" class="net_3"/>
  <line x1="832" x2="832" y1="105" y2="115" class="net_3"/>
  <line x1="832" x2="532" y1="115" y2="115" class="net_3"/>
  <line x1="532" x2="532" y1="115" y2="125" class="net_3"/>
  <line x1="832" x2="832" y1="105" y2="115" class="net_3"/>
  <line x1="832" x2="367" y1="115" y2="115" class="net_3"/>
  <line x1="367" x2="367" y1="115" y2="125" class="net_3"/>
  <line x1="832" x2="832" y1="105" y2="115" class="net_3"/>
  <line x1="832" x2="422" y1="115" y2="115" class="net_3"/>
  <line x1="422" x2="422" y1="115" y2="125" class="net_3"/>
  <line x1="832" x2="832" y1="105" y2="115" class="net_3"/>
  <line x1="832" x2="301" y1="115" y2="115" class="net_3"/>
  <line x1="301" x2="301" y1="115" y2="125" class="net_3"/>
  <line x1="832" x2="832" y1="105" y2="115" class="net_3"/>
  <line x1="832" x2="477" y1="115" y2="115" class="net_3"/>
  <line x1="477" x2="477" y1="115" y2="125" class="net_3"/>
  <line x1="832" x2="832" y1="105" y2="115" class="net_3"/>
  <line x1="832" x2="587" y1="115" y2="115" class="net_3"/>
  <line x1="587" x2="587" y1="115" y2="125" class="net_3"/>
  <line x1="99" x2="99" y1="105" y2="115" class="net_3"/>
  <line x1="99" x2="532" y1="115" y2="115" class="net_3"/>
  <circle cx="99" cy="115" r="2" style="fill:#000" class="net_3"/>
  <line x1="532" x2="532" y1="115" y2="125" class="net_3"/>
  <line x1="99" x2="99" y1="105" y2="115" class="net_3"/>
  <line x1="99" x2="367" y1="115" y2="115" class="net_3"/>
  <line x1="367" x2="367" y1="115" y2="125" class="net_3"/>
  <line x1="99" x2="99" y1="105" y2="115" class="net_3"/>
  <line x1="99" x2="422" y1="115" y2="115" class="net_3"/>
  <line x1="422" x2="422" y1="115" y2="125" class="net_3"/>
  <line x1="99" x2="99" y1="105" y2="115" class="net_3"/>
  <line x1="99" x2="301" y1="115" y2="115" class="net_3"/>
  <line x1="301" x2="301" y1="115" y2="125" class="net_3"/>
  <line x1="99" x2="99" y1="105" y2="115" class="net_3"/>
  <line x1="99" x2="477" y1="115" y2="115" class="net_3"/>
  <line x1="477" x2="477" y1="115" y2="125" class="net_3"/>
  <line x1="99" x2="99" y1="105" y2="115" class="net_3"/>
  <line x1="99" x2="587" y1="115" y2="115" class="net_3"/>
  <line x1="587" x2="587" y1="115" y2="125" class="net_3"/>
  <line x1="301" x2="301" y1="105" y2="115" class="net_3"/>
  <line x1="301" x2="532" y1="115" y2="115" class="net_3"/>
  <line x1="532" x2="532" y1="115" y2="125" class="net_3"/>
  <line x1="301" x2="301" y1="105" y2="115" class="net_3"/>
  <line x1="301" x2="367" y1="115" y2="115" class="net_3"/>
  <line x1="367" x2="367" y1="115" y2="125" class="net_3"/>
  <line x1="301" x2="301" y1="105" y2="115" class="net_3"/>
  <line x1="301" x2="422" y1="115" y2="115" class="net_3"/>
  <line x1="422" x2="422" y1="115" y2="125" class="net_3"/>
  <line x1="301" x2="301" y1="105" y2="125" class="net_3"/>
  <line x1="301" x2="301" y1="105" y2="115" class="net_3"/>
  <line x1="301" x2="477" y1="115" y2="115" class="net_3"/>
  <line x1="477" x2="477" y1="115" y2="125" class="net_3"/>
  <line x1="301" x2="301" y1="105" y2="115" class="net_3"/>
  <line x1="301" x2="587" y1="115" y2="115" class="net_3"/>
  <line x1="587" x2="587" y1="115" y2="125" class="net_3"/>
</svg>
